PathFileType	4	(X/Y/Z)	/Users/itak/Documents/Research/Walk-IL/dataset/trc/00378_00012.trc
DataRate	CameraRate	NumFrames	NumMarkers	Units	OrigDataRate	OrigDataStartFrame	OrigNumFrames
100.000000	100.000000	4	54	mm	100.000000	259	346
Frame#	Time	RPSI			LPSI			L3			STRN			T10			C7			CLAV			RBAK			LBAK			LSHO			LUPA			LAEL			LAOL			LWTS			LWPS			LFRA			LIFD			LHPS			LHTS			RSHO			RUPA			RAEL			RAOL			RWTS			RWPS			RFRA			RIFD			RHTS			RHPS			RBHD			LFHD			RFHD			LBHD			RASI			LASI			LKNE			LTHI			LANK			LTIP			LTOE			LMT1			LMT5			LHEE			RKNE			RTHI			RANK			RTIP			RTOE			RMT1			RMT5			RHEE			LHIP			RHIP			*53			
		X1	Y1	Z1	X2	Y2	Z2	X3	Y3	Z3	X4	Y4	Z4	X5	Y5	Z5	X6	Y6	Z6	X7	Y7	Z7	X8	Y8	Z8	X9	Y9	Z9	X10	Y10	Z10	X11	Y11	Z11	X12	Y12	Z12	X13	Y13	Z13	X14	Y14	Z14	X15	Y15	Z15	X16	Y16	Z16	X17	Y17	Z17	X18	Y18	Z18	X19	Y19	Z19	X20	Y20	Z20	X21	Y21	Z21	X22	Y22	Z22	X23	Y23	Z23	X24	Y24	Z24	X25	Y25	Z25	X26	Y26	Z26	X27	Y27	Z27	X28	Y28	Z28	X29	Y29	Z29	X30	Y30	Z30	X31	Y31	Z31	X32	Y32	Z32	X33	Y33	Z33	X34	Y34	Z34	X35	Y35	Z35	X36	Y36	Z36	X37	Y37	Z37	X38	Y38	Z38	X39	Y39	Z39	X40	Y40	Z40	X41	Y41	Z41	X42	Y42	Z42	X43	Y43	Z43	X44	Y44	Z44	X45	Y45	Z45	X46	Y46	Z46	X47	Y47	Z47	X48	Y48	Z48	X49	Y49	Z49	X50	Y50	Z50	X51	Y51	Z51	X52	Y52	Z52	X53	Y53	Z53	X54	Y54	Z54	

260	2.59	976.4632568359375	955.5065307617188	196.6382446289062	952.485595703125	930.4852294921875	68.56911468505859	956.8157348632812	1024.49951171875	132.0063934326172	1172.347290039062	1206.7607421875	88.67275238037109	936.5601806640625	1125.60546875	126.3669128417969	941.569580078125	1377.480224609375	112.727294921875	1103.982421875	1317.303100585938	98.00833892822266	924.8053588867188	1225.727661132812	181.2378387451172	914.628173828125	1339.546142578125	15.92965221405029	991.6088256835938	1365.430297851562	-48.27751159667969	951.9539184570312	1243.743530273438	-106.7778091430664	956.9946899414062	1046.64013671875	-121.8332061767578	926.5162353515625	1027.56787109375	-44.23015213012695	1045.387817382812	827.7372436523438	-98.03121948242188	975.1385498046875	816.9857788085938	-140.5793762207031	963.6080322265625	941.318603515625	-130.1790161132812	1020.82763671875	646.606201171875	-86.54192352294922	981.7239990234375	730.365966796875	-131.3407440185547	1043.79150390625	726.6526489257812	-114.8830108642578	1015.014099121094	1362.641967773438	261.5039672851562	1010.718872070312	1297.143676757812	320.6520080566406	1044.55517578125	1042.191040039062	375.4601440429688	1033.190307617188	1020.453186035156	281.9023742675781	1242.214477539062	895.2135620117188	371.6559448242188	1202.149536132812	869.4701538085938	428.3488159179688	1087.85888671875	989.4948120117188	396.6552429199219	1321.950561523438	745.0997924804688	396.8536071777344	1303.063232421875	814.7413940429688	407.9304504394531	1245.725219726562	794.2298583984375	439.8713073730469	971.2393798828125	1563.905639648438	200.6188201904297	1091.326782226562	1588.983276367188	42.43274688720703	1097.901611328125	1592.807006835938	165.1294860839844	945.1976318359375	1555.47119140625	40.60385894775391	1199.368530273438	970.0254516601562	217.2279663085938	1136.509399414062	939.7474365234375	-35.83993148803711	1202.666015625	466.0550842285156	-54.35074996948242	1159.905029296875	590.1099243164062	-57.08738327026367	860.4035034179688	172.4765625	4.646358013153076	1030.063354492188	309.0460815429688	-38.45030212402344	1031.135131835938	42.45233535766602	32.25228118896484	977.2321166992188	88.39504241943359	74.62308502197266	946.2313842773438	84.44446563720703	-25.52425193786621	843.8660278320312	197.4421997070312	65.36224365234375	1188.957885742188	467.2752685546875	235.8241424560547	1190.960571289062	732.7326049804688	274.3035583496094	1143.209838867188	47.34061050415039	200.8567047119141	1201.48828125	340.4183349609375	211.2232666015625	1308.64794921875	25.20815086364746	106.163688659668	1225.1875	30.70222663879395	88.46504974365234	1225.038940429688	38.03406143188477	189.2664489746094	1061.78125	36.61712646484375	164.2081146240234	1018.394592285156	924.6522216796875	-58.29544448852539	1082.409423828125	952.2540893554688	295.9666137695312	nan	nan	nan	
261	2.6	980.0247192382812	955.6253662109375	195.6732330322266	956.638671875	930.6671752929688	67.56589508056641	961.029296875	1025.277221679688	130.8835296630859	1177.122314453125	1207.134521484375	88.17223358154297	941.056640625	1126.3388671875	125.5185012817383	946.7556762695312	1378.26318359375	112.4369735717773	1108.97607421875	1317.798461914062	97.48868560791016	929.7782592773438	1226.582885742188	181.0456848144531	919.638671875	1340.4052734375	15.75637054443359	996.4608764648438	1366.098510742188	-48.66045761108398	955.3655395507812	1244.738525390625	-106.7234802246094	957.5267333984375	1047.530883789062	-120.4888000488281	927.5670776367188	1029.31884765625	-42.49938201904297	1044.128173828125	828.0509033203125	-96.94941711425781	973.0441284179688	817.28955078125	-138.1271209716797	962.8709106445312	942.033935546875	-128.412841796875	1019.6513671875	647.06103515625	-84.54827880859375	979.5475463867188	730.6654052734375	-128.6322784423828	1041.804565429688	726.69091796875	-113.2985610961914	1020.370422363281	1363.395874023438	261.0657653808594	1016.223205566406	1297.945556640625	320.4226379394531	1051.282348632812	1043.370361328125	376.1637878417969	1041.049682617188	1020.976196289062	282.9866638183594	1252.265991210938	901.43408203125	372.3211669921875	1212.977416992188	874.5316772460938	429.0896606445312	1095.5341796875	991.573974609375	397.3448181152344	1336.728515625	753.9570922851562	397.6751098632812	1315.660278320312	823.0359497070312	408.7070007324219	1258.973999023438	800.7132568359375	440.6958312988281	977.0751342773438	1564.85595703125	199.9726104736328	1097.2568359375	1589.304077148438	41.79762268066406	1103.87109375	1593.222534179688	164.5000610351562	951.0028076171875	1556.354125976562	40.00801086425781	1203.012084960938	970.1209716796875	217.0885467529297	1141.007202148438	940.887939453125	-36.35420608520508	1212.18896484375	468.1373901367188	-54.81638336181641	1167.879760742188	591.9375	-57.73420333862305	877.4596557617188	164.7748107910156	1.912039041519165	1043.3349609375	306.5559997558594	-40.09749603271484	1054.42578125	43.17850112915039	28.99622535705566	998.0014038085938	85.94358825683594	71.61279296875	967.605712890625	81.43293762207031	-28.64179420471191	859.3865356445312	188.5191802978516	62.68276977539062	1190.765014648438	467.1307678222656	235.3017272949219	1193.764282226562	732.5612182617188	273.7608947753906	1143.2666015625	47.4478759765625	200.5830230712891	1202.730346679688	340.177490234375	210.6936187744141	1308.703247070312	25.25033760070801	106.1967697143555	1225.08251953125	30.38815879821777	88.296142578125	1225.069091796875	38.16263961791992	189.007568359375	1061.762817382812	36.71673583984375	163.9787139892578	1022.566528320312	925.4570922851562	-59.36724853515625	1085.884887695312	952.111083984375	295.6455383300781	nan	nan	nan	
262	2.61	983.5127563476562	955.7081298828125	194.7122955322266	960.686279296875	930.9124755859375	66.53525543212891	965.1099853515625	1026.05615234375	129.7425079345703	1181.73681640625	1207.501831054688	87.66017913818359	945.4424438476562	1127.072021484375	124.6413269042969	951.798583984375	1379.048950195312	112.1267166137695	1113.805297851562	1318.289916992188	96.95545959472656	934.5783081054688	1227.43798828125	180.8590240478516	924.5003051757812	1341.262939453125	15.57980346679688	1001.146240234375	1366.753173828125	-49.05777359008789	958.7137451171875	1245.689453125	-106.6159439086914	958.1266479492188	1048.457641601562	-119.1595153808594	928.8657836914062	1031.035522460938	-40.73054504394531	1043.095703125	828.4019775390625	-96.00604248046875	971.1234130859375	817.6747436523438	-135.7042236328125	962.260009765625	942.8031005859375	-126.664924621582	1018.789184570312	647.56103515625	-82.9197998046875	977.6018676757812	731.06787109375	-126.0675888061523	1039.985473632812	726.7650146484375	-111.8139724731445	1025.56689453125	1364.1484375	260.6199340820312	1021.563049316406	1298.741455078125	320.1839599609375	1057.70068359375	1044.51171875	376.7319946289062	1048.062622070312	1021.560119628906	283.7703552246094	1261.765869140625	907.5026245117188	372.9373474121094	1223.206909179688	879.4481201171875	429.7071228027344	1102.827514648438	993.58447265625	397.9352111816406	1350.620483398438	762.6277465820312	398.2663879394531	1327.492797851562	831.0888061523438	409.3522338867188	1271.473388671875	807.02294921875	441.3136291503906	982.7620849609375	1565.793090820312	199.3098449707031	1103.072631835938	1589.599731445312	41.17315673828125	1109.705444335938	1593.618530273438	163.883544921875	956.699462890625	1557.23876953125	39.38331604003906	1206.468383789062	970.2024536132812	216.9542388916016	1145.38671875	942.0152587890625	-36.83893966674805	1220.932495117188	470.053466796875	-55.29066467285156	1175.244506835938	593.6898193359375	-58.37567520141602	894.4067993164062	156.6198883056641	-0.9135211110115051	1056.1328125	303.73974609375	-41.81433486938477	1077.15380859375	43.76687622070312	26.20999336242676	1018.484008789062	83.61124420166016	68.72548675537109	988.6886596679688	78.11727905273438	-31.54101943969727	874.809814453125	179.1713256835938	59.85605239868164	1192.505249023438	466.9876098632812	234.7799072265625	1196.413208007812	732.38037109375	273.2193908691406	1143.298583984375	47.59941864013672	200.3236236572266	1203.929321289062	339.9437561035156	210.1705017089844	1308.75146484375	25.26685523986816	106.2328033447266	1224.998901367188	30.14173698425293	88.11280059814453	1225.099731445312	38.30021286010742	188.7719116210938	1061.750122070312	36.82512664794922	163.7189025878906	1026.702026367188	926.1742553710938	-60.32148742675781	1088.935546875	951.9483642578125	295.2091979980469	nan	nan	nan	
263	2.62	986.8794555664062	955.7662963867188	193.7170562744141	964.6113891601562	931.2159423828125	65.44838714599609	968.9835815429688	1026.833251953125	128.5808868408203	1186.192626953125	1207.8642578125	87.14081573486328	949.7330322265625	1127.804443359375	123.7490997314453	956.6978149414062	1379.83544921875	111.793342590332	1118.47265625	1318.778076171875	96.41078186035156	939.193603515625	1228.294311523438	180.6653442382812	929.2192993164062	1342.118896484375	15.39106178283691	1005.668823242188	1367.381591796875	-49.46711349487305	962.0113525390625	1246.590576171875	-106.4590454101562	958.8287963867188	1049.39892578125	-117.8671569824219	930.4290161132812	1032.690063476562	-38.95817184448242	1042.303344726562	828.7435302734375	-95.17092132568359	969.44921875	818.1399536132812	-133.3678131103516	961.8248901367188	943.6098022460938	-124.9607238769531	1018.163940429688	648.0851440429688	-81.57437133789062	975.9137573242188	731.5643920898438	-123.6766510009766	1038.34619140625	726.8710327148438	-110.4043273925781	1030.598999023438	1364.896484375	260.1710815429688	1026.734985351562	1299.525268554688	319.9322204589844	1063.833374023438	1045.606811523438	377.1710510253906	1054.406372070312	1022.178955078125	284.3166809082031	1270.719970703125	913.3632202148438	373.488525390625	1232.857299804688	884.1847534179688	430.2088012695312	1109.765991210938	995.5180053710938	398.420654296875	1363.6298828125	771.0309448242188	398.6470642089844	1338.569458007812	838.83349609375	409.8621215820312	1283.2373046875	813.112548828125	441.7494506835938	988.3018798828125	1566.71142578125	198.6302032470703	1108.767944335938	1589.8681640625	40.55854797363281	1115.404052734375	1593.993530273438	163.2768249511719	962.28271484375	1558.12060546875	38.72823715209961	1209.745727539062	970.2789916992188	216.8435516357422	1149.659912109375	943.1118774414062	-37.26810455322266	1228.876342773438	471.7874145507812	-55.78103637695312	1181.976196289062	595.3392333984375	-59.01526260375977	911.1780395507812	148.1548614501953	-3.809142351150513	1068.411499023438	300.6582336425781	-43.58971405029297	1099.182373046875	44.26013565063477	23.81295013427734	1038.557861328125	81.41759490966797	65.93203735351562	1009.354614257812	74.58148193359375	-34.25341796875	890.0919189453125	169.5352478027344	56.91204833984375	1194.192749023438	466.8479309082031	234.2681121826172	1198.92041015625	732.1926879882812	272.6907348632812	1143.304931640625	47.77865600585938	200.0923919677734	1205.10009765625	339.7174377441406	209.6659393310547	1308.791137695312	25.25542640686035	106.2734298706055	1224.94189453125	29.94964408874512	87.93357086181641	1225.127807617188	38.43601989746094	188.5654449462891	1061.73828125	36.92799758911133	163.4391021728516	1030.840576171875	926.864501953125	-61.20859146118164	1091.743774414062	951.7797241210938	294.6904907226562	nan	nan	nan	
